<?xml version="1.0" standalone="no"?>
<!DOCTYPE svg PUBLIC "-//W3C//DTD SVG 20010904//EN"
 "http://www.w3.org/TR/2001/REC-SVG-20010904/DTD/svg10.dtd">
<svg version="1.0" xmlns="http://www.w3.org/2000/svg"
 width="500.000000pt" height="500.000000pt" viewBox="0 0 500.000000 500.000000"
 preserveAspectRatio="xMidYMid meet">
<metadata>
Created by potrace 1.14, written by Peter Selinger 2001-2017
</metadata>
<g transform="translate(0.000000,500.000000) scale(0.100000,-0.100000)"
fill="#000000" stroke="none">
<path d="M370 3726 c0 -2 13 -33 28 -68 45 -99 52 -124 292 -993 l227 -820
235 -3 235 -2 -1 67 c-1 58 20 146 139 580 77 282 143 513 146 513 3 0 77
-261 165 -580 l159 -580 236 0 237 0 -5 58 c-4 51 14 124 167 682 251 919 280
1019 306 1078 13 30 24 58 24 63 0 5 -19 9 -43 9 l-43 0 -10 -67 c-11 -68
-452 -1702 -463 -1715 -10 -12 -461 1641 -468 1715 l-6 67 -238 0 c-134 0
-239 -4 -239 -9 0 -5 16 -42 35 -82 32 -69 138 -417 151 -500 5 -28 -30 -167
-152 -617 -88 -320 -162 -578 -165 -574 -3 4 -23 70 -44 147 -21 77 -123 446
-226 820 -111 400 -192 708 -196 748 l-6 67 -238 0 c-132 0 -239 -2 -239 -4z"/>
<path d="M3611 3688 c4 -24 5 -56 2 -73 -16 -86 -447 -1643 -472 -1704 l-30
-71 48 0 48 0 6 63 c4 34 40 184 80 332 l74 270 311 3 311 2 20 -67 c61 -209
123 -453 133 -523 l12 -80 238 0 c131 0 238 2 238 5 0 3 -13 31 -29 63 -41 83
-49 110 -286 972 -119 432 -221 800 -226 818 l-11 32 -237 0 -238 0 8 -42z
m213 -578 c74 -267 138 -497 141 -512 l7 -28 -291 0 c-160 0 -291 3 -291 8 0
4 64 242 142 530 93 340 146 516 150 505 5 -10 68 -236 142 -503z"/>
</g>
</svg>
